<?xml version="1.0" standalone="no"?>
<!DOCTYPE svg PUBLIC "-//W3C//DTD SVG 20010904//EN"
 "http://www.w3.org/TR/2001/REC-SVG-20010904/DTD/svg10.dtd">
<svg version="1.0" xmlns="http://www.w3.org/2000/svg"
 width="333.000000pt" height="333.000000pt" viewBox="0 0 333.000000 333.000000"
 preserveAspectRatio="xMidYMid meet">
<metadata>
Created by potrace 1.14, written by Peter Selinger 2001-2017
</metadata>
<g transform="translate(0.000000,333.000000) scale(0.100000,-0.100000)"
fill="#000000" stroke="none">
<path d="M0 1665 l0 -1665 1665 0 1665 0 0 1665 0 1665 -1665 0 -1665 0 0
-1665z m1412 269 l176 -305 55 93 c30 51 109 189 176 306 l123 212 94 0 94 0
0 -690 0 -690 -80 0 -80 0 0 552 0 553 -142 -248 -143 -247 -95 0 -96 0 -139
242 -140 242 -5 -215 -5 -214 -137 -3 -138 -3 0 81 0 80 60 0 60 0 0 280 0
280 93 0 93 0 176 -306z m-212 -769 l0 -305 -75 0 -75 0 -2 223 -3 222 -57 3
-58 3 0 79 0 80 135 0 135 0 0 -305z"/>
</g>
</svg>
