<svg fill="none" xmlns="http://www.w3.org/2000/svg" viewBox="0 0 375 83"><g clip-path="url(#a)"><path d="M117.8 63.3H97.3l-5 12.9h-6.8L104 30h7.4l18.4 46.2h-7l-5-13Zm-18.2-6h16l-8.1-20.7-8 20.7Zm44.8 19.9c-7.4 0-11.8-5.5-11.8-12.6V44.8h6.1v18.9c0 4.3 2 8 7.2 8 5 0 7.4-3.2 7.4-8V44.9h6.2v25.6c0 2 0 3.9.3 5.8H154a28 28 0 0 1-.3-3.8c-1.7 3.3-5.6 4.8-9.2 4.8Zm33.1-32.4h6.8v5.6h-6.8v16.3c0 2.8 1.2 4.3 4.4 4.3l2.4-.3V76c-1.3.4-2.7.6-4.1.6-5.4 0-8.8-3.2-8.8-9V50.5h-6v-5.6h1.7c3.4 0 4.8-2 4.8-4.8v-5h5.6v9.8Zm43.6 15.7c0 9.6-6.7 16.7-16 16.7-9.5 0-16.2-7.2-16.2-16.7 0-9.6 6.7-16.7 16.1-16.7 9.4 0 16.1 7.2 16.1 16.7Zm-6.3 0c0-7.3-4.5-11.2-9.8-11.2-5.2 0-9.8 4-9.8 11.2 0 7.2 4.6 11.2 9.8 11.2 5.3 0 9.8-4 9.8-11.2Zm38-18a9.4 9.4 0 0 0-9.8-8c-5.2 0-9 3.5-9 7.8 0 3.3 2 5.8 6 6.7l7 1.5c7.6 1.7 12 6.5 12 13 0 7.1-6.2 13.7-16.1 13.7-11.2 0-16.5-7.2-17.3-13.8l6.1-2c.5 5.2 4.1 10 11.1 10 6.4 0 9.6-3.4 9.6-7.4 0-3.4-2.3-6.2-7-7.2l-6.6-1.4c-6.6-1.5-11.3-5.8-11.3-12.7 0-7.2 6.8-13.8 15.3-13.8 10.5 0 14.7 6.5 15.8 11.5l-5.8 2Zm21.3 2.3h6.8v5.6H274v16.3c0 2.8 1.1 4.3 4.4 4.3l2.4-.3V76c-1.4.4-2.8.6-4.2.6-5.4 0-8.8-3.2-8.8-9V50.5h-6v-5.6h1.7c3.4 0 4.8-2 4.8-4.8v-5h5.7v9.8Zm43.6 15.7c0 9.6-6.7 16.7-16.1 16.7-9.5 0-16.2-7.1-16.2-16.7s6.7-16.7 16.1-16.7c9.4 0 16.2 7.2 16.2 16.7Zm-6.3 0c0-7.3-4.6-11.2-9.8-11.2-5.3 0-9.9 4-9.9 11.2 0 7.2 4.6 11.2 9.9 11.2 5.2 0 9.8-4 9.8-11.2Zm30.4-9.5-2.7-.2c-5.1 0-8.6 2.8-8.6 9.7v15.7h-6.1V44.8h6v5.5c2.3-4.8 6.2-6 9.4-6 .7 0 1.4 0 2 .2V51Zm33 16.2c-1.8 5.6-6.8 10-14.1 10-8.4 0-15.8-6.2-15.8-16.8 0-9.8 7-16.6 15-16.6 9.7 0 15.1 6.7 15.1 16.5l-.1 2h-23.7a9.3 9.3 0 0 0 9.5 9.5c5 0 7.6-2.8 8.8-6.4l5.3 1.8Zm-6.2-10c-.1-4.4-3-8-8.6-8-5.2 0-8.3 4-8.6 8h17.2Z" fill="#000"/><path d="M36.8 6.8a6.7 6.7 0 0 1-8.1 6.6 6.8 6.8 0 0 1-5-9.2A6.8 6.8 0 0 1 34.9 2c1.3 1.2 2 3 2 4.8Zm-30 16.4a6.8 6.8 0 0 0-6.7 8 6.7 6.7 0 0 0 9.3 5 6.8 6.8 0 0 0 2.2-11c-1.3-1.3-3-2-4.8-2Zm46.5 0a6.8 6.8 0 0 0-6.7 8 6.7 6.7 0 0 0 9.3 5 6.8 6.8 0 0 0 2.2-11c-1.3-1.3-3-2-4.8-2ZM30 46.3a6.8 6.8 0 0 0-6.6 8.1 6.7 6.7 0 0 0 9.2 5 6.8 6.8 0 0 0 2.2-11.1c-1.3-1.3-3-2-4.8-2ZM6.8 69.5a6.8 6.8 0 0 0-6.7 8 6.7 6.7 0 0 0 9.3 5 6.8 6.8 0 0 0 2.2-11c-1.3-1.3-3-2-4.8-2Zm46.5 0a6.8 6.8 0 0 0-6.7 8 6.7 6.7 0 0 0 9.3 5 6.8 6.8 0 0 0 2.2-11c-1.3-1.3-3-2-4.8-2Zm-46.5 0a6.8 6.8 0 0 0-6.7 8 6.7 6.7 0 0 0 9.3 5 6.8 6.8 0 0 0 2.2-11c-1.3-1.3-3-2-4.8-2Zm46.5 0a6.8 6.8 0 0 0-6.7 8 6.7 6.7 0 0 0 9.3 5 6.8 6.8 0 0 0 2.2-11c-1.3-1.3-3-2-4.8-2Z" fill="#E11B22"/></g><defs><clipPath id="a"><path fill="#fff" d="M0 0h375v83H0z"/></clipPath></defs></svg>