<svg fill="none" xmlns="http://www.w3.org/2000/svg" viewBox="0 0 254 24"><g clip-path="url(#a)" fill="#000"><path d="m6.78.47-1.5 15.57 6.95-12.36h5.03l.07 12.4L24.48.48h5.06L18.46 22.95h-5.41l-.38-11.86-6.85 11.86H.2L1.71.47h5.07ZM40.36 22.96h-14.2L32.47.47h13.95l-1.2 4.26h-8.88l-1.35 4.81h7.82l-1.15 4.19h-7.86l-1.4 4.98h9.48l-1.51 4.25ZM70.63 10.47a9.6 9.6 0 0 1-4.12 2.95c.39.32.7.94.94 1.86l1.88 7.68h-5.4l-1.31-6.7a3.92 3.92 0 0 0-.57-1.55c-.22-.26-.6-.4-1.12-.4h-.97l-2.44 8.65H52.5L58.8.47h7.47c2.11 0 3.7.52 4.76 1.56a4.95 4.95 0 0 1 1.36 4.19 7.7 7.7 0 0 1-1.75 4.25Zm-9.57-.13h2.35c1.08 0 1.93-.33 2.56-.97.63-.65 1-1.5 1.08-2.56.12-1.39-.57-2.08-2.09-2.08h-2.34l-1.56 5.6ZM72.93 14.97 77 .47h5.03l-4.1 14.64c-.73 2.65.14 3.98 2.62 3.98s4.03-1.32 4.79-3.95L89.45.47h5.02l-4.04 14.47a11.44 11.44 0 0 1-3.95 6.2c-1.9 1.47-4.27 2.2-7.12 2.2-2.85 0-4.76-.73-5.87-2.2-1.11-1.48-1.3-3.54-.56-6.17ZM91.03 22.96 97.33.47h4.37l4.3 13.57L109.83.47h4.82l-6.3 22.5h-4.37L99.55 9.77l-3.7 13.18h-4.82ZM125.8 22.96h-5.03L127.1.47h13.43l-1.2 4.26h-8.4l-1.35 4.81h7.44l-1.16 4.19h-7.47l-2.6 9.23ZM133.66 22.96 147.4.47h5.44l1.1 22.5h-5.06l-.12-4.95h-7.06l-2.84 4.94h-5.2Zm14.82-16.74-4.7 8.2h4.88l-.18-8.2ZM172.57 15.66a7.57 7.57 0 0 1-3.1 5.5c-1.9 1.46-4 2.18-6.32 2.18-2.62 0-4.88-.81-6.78-2.45l2.33-3.77c1.72 1.31 3.37 1.97 4.96 1.97 1.03 0 1.86-.23 2.49-.67a2.4 2.4 0 0 0 1.03-1.82c.04-.5-.17-1-.65-1.45a9.5 9.5 0 0 0-1.76-1.32c-.7-.41-1.4-.87-2.1-1.38a5.74 5.74 0 0 1-1.72-2.02 5.05 5.05 0 0 1-.52-2.86 7.3 7.3 0 0 1 3.05-5.4 10.08 10.08 0 0 1 12.2-.07l-2.45 3.57a7.25 7.25 0 0 0-4.19-1.32c-.96 0-1.73.23-2.31.7-.58.45-.9 1.07-.97 1.83-.05.57.16 1.12.63 1.62.47.51 1.06.97 1.77 1.39.71.41 1.42.86 2.12 1.34.7.5 1.29 1.1 1.74 1.86.45.75.63 1.6.55 2.57ZM174.48 22.96l6.3-22.49h5.02l-2.46 8.9h7.44l2.5-8.9h5.03l-6.3 22.5h-5.03l2.6-9.35h-7.43l-2.64 9.34h-5.03ZM202.03 22.96H197L203.3.47h5.03l-6.3 22.5ZM229.9 9.06a17.21 17.21 0 0 1-3.99 9.72 13.15 13.15 0 0 1-10.04 4.57c-2.8 0-4.8-.85-5.98-2.53-1.23-1.66-1.73-3.82-1.5-6.47a17.16 17.16 0 0 1 3.98-9.76c1.16-1.4 2.61-2.5 4.35-3.3 1.75-.8 3.63-1.2 5.65-1.2 2.8 0 4.82.83 6.06 2.5 1.2 1.68 1.7 3.83 1.46 6.46Zm-16.2 4.8c-.14 1.62.08 2.9.67 3.83.58.93 1.48 1.4 2.7 1.4 1.93 0 3.6-.91 5.03-2.73a12.32 12.32 0 0 0 2.48-6.78c.14-1.62-.09-2.9-.68-3.83-.6-.93-1.5-1.4-2.69-1.4-1.95 0-3.62.9-5.02 2.7a12.39 12.39 0 0 0-2.49 6.82ZM229.92 22.96l6.3-22.49h4.37l4.3 13.57L248.72.47h4.82l-6.3 22.5h-4.37l-4.43-13.19-3.7 13.18h-4.82Z"/></g><defs><clipPath id="a"><path fill="#fff" d="M.2.1h253.34v23.24H.2z"/></clipPath></defs></svg>